# AST/ASF file generated using VICON BodyLanguage
# -----------------------------------------------
:version 1.10
:name VICON
:units
  mass 1.0
  length 0.45
  angle deg
:documentation
   .ast/.asf automatically generated from VICON data using
   VICON BodyBuilder and BodyLanguage model FoxedUp or BRILLIANT.MOD
:root
   order TX TY TZ RX RY RZ
   axis XYZ
   position 0 0 0  
   orientation 0 0 0 
:bonedata
  begin
     id 1 
     name lhipjoint
     direction 0.543289 -0.788407 0.288535 
     length 2.57127 
     axis 0 0 0  XYZ
  end
  begin
     id 2 
     name lfemur
     direction 0.34202 -0.939693 0  
     length 8.47298  
     axis 0 0 20  XYZ
    dof rx ry rz
    limits (-160.0 20.0)
           (-70.0 70.0)
           (-60.0 70.0)
  end
  begin
     id 3 
     name ltibia
     direction 0.34202 -0.939693 0   
     length 8.13367   
     axis 0 0 20   XYZ
    dof rx
    limits (-10.0 170.0)
  end
  begin
     id 4 
     name lfoot
     direction 0.114037 -0.313314 0.942778   
     length 2.67113   
     axis -90 7.62852e-016 20   XYZ
    dof rx rz
    limits (-45.0 90.0)
           (-70.0 20.0)
  end
  begin
     id 5 
     name ltoes
     direction 1.536e-011 -4.21847e-011 1   
     length 1.32217   
     axis -90 7.62852e-016 20   XYZ
    dof rx
    limits (-90.0 20.0)
  end
  begin
     id 6 
     name rhipjoint
     direction -0.571293 -0.770752 0.282074   
     length 2.63017  
     axis 0 0 0  XYZ 
  end
  begin
     id 7 
     name rfemur
     direction -0.34202 -0.939693 0   
     length 8.60885   
     axis 0 0 -20   XYZ
    dof rx ry rz
    limits (-160.0 20.0)
           (-70.0 70.0)
           (-70.0 60.0)
  end
  begin
     id 8 
     name rtibia
     direction -0.34202 -0.939693 0   
     length 8.07673   
     axis 0 0 -20   XYZ
    dof rx
    limits (-10.0 170.0)
 end
 begin
     id 9 
     name rfoot
     direction -0.121336 -0.333368 0.934956   
     length 2.81602  
     axis -90 -7.62852e-016 -20   XYZ
    dof rx rz
    limits (-45.0 90.0)
           (-20.0 70.0)
  end
  begin
     id 10 
     name rtoes
     direction -1.53491e-011 -4.21808e-011 1   
     length 1.38905   
     axis -90 -7.62852e-016 -20   XYZ
    dof rx
    limits (-90.0 20.0)
  end
  begin
     id 11 
     name lowerback
     direction 0.0136776 0.999869 -0.00861835   
     length 2.14087   
     axis 0 0 0   XYZ
    dof rx ry rz
    limits (-20.0 45.0)
           (-30.0 30.0)
           (-30.0 30.0)
  end
  begin
     id 12 
     name upperback
     direction -0.00789158 0.999804 0.0181308   
     length 2.14151   
     axis 0 0 0   XYZ
    dof rx ry rz
    limits (-20.0 45.0)
           (-30.0 30.0)
           (-30.0 30.0)
  end
  begin
     id 13 
     name thorax
     direction -0.0135231 0.999666 0.0220247   
     length 2.13644   
     axis 0 0 0   XYZ
    dof rx ry rz
    limits (-20.0 45.0)
           (-30.0 30.0)
           (-30.0 30.0)
  end
  begin
     id 14 
     name lowerneck
     direction -0.0392259 0.997317 0.0618018   
     length 1.65045   
     axis 0 0 0   XYZ
    dof rx ry rz
    limits (-20.0 45.0)
           (-30.0 30.0)
           (-30.0 30.0)
  end
  begin
     id 15 
     name upperneck
     direction 0.0765547 0.994276 -0.0745319   
     length 1.66045   
     axis 0 0 0   XYZ
    dof rx ry rz
    limits (-20.0 45.0)
           (-30.0 30.0)
           (-30.0 30.0)
  end
  begin
     id 16
     name head
     direction 0.0241564 0.999031 -0.036785  
     length 1.66594  
     axis 0 0 0   XYZ
    dof rx ry rz
    limits (-20.0 45.0)
           (-30.0 30.0)
           (-30.0 30.0)
  end
  begin
     id 17 
     name lclavicle
     direction 0.967398 0.249018 0.0461573  
     length 3.75176  
     axis 0 0 0   XYZ
    dof ry rz
    limits (-20.0 10.0)
           (0.0 20.0)
  end
  begin
     id 18 
     name lhumerus
     direction 1 -4.48963e-011 -3.05005e-027   
     length 5.93342   
     axis 180 -30 -90   XYZ
    dof rx ry rz
    limits (-60.0 90.0)
           (-90.0 90.0)
           (-90.0 90.0)
  end
  begin
     id 19
     name lradius
     direction 1 -4.48957e-011 1.07006e-026   
     length 3.94763   
     axis 180 -30 -90   XYZ
    dof rx
    limits (-10.0 170.0)
  end
  begin
     id 20
     name lwrist
     direction 1 -4.48978e-011 1.92422e-026   
     length 1.97382   
     axis -1.18182e-014 90 90   XYZ
    dof ry
    limits (-180.0 0.0)
 end
  begin
     id 21 
     name lhand
     direction 1 -4.48931e-011 3.84844e-026   
     length 0.560187   
     axis -2.45563e-014 90 90   XYZ
    dof rx rz
    limits (-90.0 90.0)
           (-45.0 45.0)
  end
  begin
     id 22 
     name lfingers
     direction 1 -4.48952e-011 7.69687e-026   
     length 0.451637   
     axis -4.91126e-014 90 90   XYZ
    dof rx
    limits (0.0 90.0)
  end
  begin
     id 23
     name lthumb
     direction 0.707107 -6.34901e-011 0.707107   
     length 0.648463   
     axis -90 45 2.85299e-015   XYZ
    dof rx rz
    limits (-45.0 45.0)
           (-45.0 45.0)
  end
  begin
     id 24 
     name rclavicle
     direction -0.965946 0.258716 0.00371831   
     length 3.63667  
     axis 0 0 0   XYZ 
    dof ry rz
    limits (-10.0 20.0)
           (-20.0 0.0)
  end
  begin
     id 25 
     name rhumerus
     direction -1 -4.48966e-011 -1.78361e-028  
     length 6.28647   
     axis 180 30 90   XYZ
    dof rx ry rz
    limits (-90.0 60.0)
           (-90.0 90.0)
           (-90.0 90.0)
  end
  begin
     id 26 
     name rradius
     direction -1 -4.48961e-011 1.05248e-026   
     length 3.81645   
     axis 180 30 90   XYZ
    dof rx
    limits (-10.0 170.0)
  end
  begin
     id 27 
     name rwrist
     direction -1 -4.48979e-011 1.92422e-026   
     length 1.90822   
     axis -1.18182e-014 -90 -90   XYZ
    dof ry
    limits (-180.0 0.0)
  end
  begin
     id 28
     name rhand
     direction -1 -4.48937e-011 3.84844e-026   
     length 0.646185   
     axis -2.45563e-014 -90 -90   XYZ
    dof rx rz
    limits (-90.0 90.0)
           (-45.0 45.0)
  end
  begin
     id 29
     name rfingers
     direction -1 -4.48953e-011 7.69687e-026   
     length 0.520971   
     axis -4.91126e-014 -90 -90   XYZ
    dof rx
    limits (0.0 90.0)
  end
  begin
     id 30
     name rthumb
     direction -0.707107 -6.3494e-011 0.707107   
     length 0.748013   
     axis -90 -45 -2.85299e-015   XYZ
    dof rx rz
    limits (-45.0 45.0)
           (-45.0 45.0)
  end
:hierarchy
  begin
    root lhipjoint rhipjoint lowerback
    lhipjoint lfemur
    lfemur ltibia
    ltibia lfoot
    lfoot ltoes
    rhipjoint rfemur
    rfemur rtibia
    rtibia rfoot
    rfoot rtoes
    lowerback upperback
    upperback thorax
    thorax lowerneck lclavicle rclavicle
    lowerneck upperneck
    upperneck head
    lclavicle lhumerus
    lhumerus lradius
    lradius lwrist
    lwrist lhand lthumb
    lhand lfingers
    rclavicle rhumerus
    rhumerus rradius
    rradius rwrist
    rwrist rhand rthumb
    rhand rfingers
  end

#!OML:ASF H:\HAZMAT1\Patient Classification 1\Patient 3\Session 1\dancer.ASF
:FULLY-SPECIFIED
:DEGREES
46
upperback -0.900024 -8.264920 -1.577490
rfoot -27.778200 -9.099890
lradius 11.820500
lthumb -9.603440 267.209015
rradius 71.870499
lwrist -54.950699
rhand -50.310001 -56.808899
rhumerus -18.527500 -46.299198 4.243520
lowerneck -5.691510 8.725530 8.078510
lhand -36.511600 63.030201
ltibia 57.630402
head 8.740030 6.185830 -3.109000
rwrist -32.069801
lfingers 7.125020
rtoes -1.146000
lowerback -0.060637 -6.200550 6.071500
rfingers 7.125020
lclavicle -0.000000 -0.000000
upperneck 21.340900 13.272300 -9.225910
rfemur -37.272400 18.237700 13.812500
thorax -1.987300 -4.226520 -4.780690
rclavicle -0.000000 -0.000000
rtibia 51.238701
lfoot -8.146010 20.320900
lhumerus -59.366199 55.104698 7.139050
rthumb -22.886600 -85.470703
root -2.783450 18.475000 6.578610 372.441010 56.718700 -1.056870
ltoes 12.540100
lfemur -21.057899 2.233550 -3.584720
47
upperback 0.671758 -10.637300 -4.847210
rfoot -29.207500 -4.647520
lradius 8.293340
lthumb -10.705900 268.540009
rradius 53.317402
lwrist -69.971603
rhand -50.402901 -55.663502
rhumerus -40.356201 -38.764599 9.747420
lowerneck -3.998490 12.490700 10.968400
lhand -37.654301 61.752399
ltibia 36.705700
head 7.084000 8.440900 -2.445310
rwrist -22.958700
lfingers 7.125020
rtoes -6.069320
lowerback 0.885268 -7.982130 3.156790
rfingers 7.125020
lclavicle 0.000000 0.000000
upperneck 15.998400 17.122101 -6.750620
rfemur -43.206001 24.826599 3.945750
thorax -1.294460 -5.354450 -6.420650
rclavicle 0.000000 0.000000
rtibia 51.428699
lfoot -9.631050 33.303600
lhumerus -34.073200 81.711899 45.165199
rthumb -22.975700 -84.314201
root -0.769537 18.264900 5.731330 376.187988 40.825699 -2.015940
ltoes 22.690001
lfemur -22.790400 -8.046090 11.212000
48
upperback 2.522200 -11.609500 -5.753970
rfoot -27.523500 -4.621450
lradius 6.439140
lthumb -9.461500 269.417999
rradius 30.686399
lwrist -77.246498
rhand -50.206600 -55.970100
rhumerus -54.053101 -36.560699 11.180000
lowerneck -4.569860 13.471600 11.101100
lhand -36.364498 60.813900
ltibia 36.402199
head 6.199800 8.922350 -0.960699
rwrist -7.979710
lfingers 7.125020
rtoes -14.795400
lowerback 2.126460 -8.773630 0.974317
rfingers 7.125020
lclavicle -0.000000 -0.000000
upperneck 14.182200 17.469601 -1.836320
rfemur -44.518700 27.358000 -4.989880
thorax 0.041608 -5.763890 -6.116840
rclavicle -0.000000 -0.000000
rtibia 43.090401
lfoot -18.846300 19.069201
lhumerus 64.489197 79.366600 160.891998
rthumb -22.787399 -84.644203
root 1.897850 17.884501 3.894130 375.079987 31.764700 -8.207210
ltoes -10.149400
lfemur -24.156099 -6.917930 16.386700
49
upperback 3.724150 -10.878400 -5.386680
rfoot -8.909280 -8.605160
lradius 5.546160
lthumb -10.987500 89.292702
rradius 24.300699
lwrist -79.845596
rhand -45.857601 -54.199902
rhumerus -67.060997 -32.256901 10.475400
lowerneck -5.372970 12.717600 11.154500
lhand -37.946301 59.600201
ltibia 50.872200
head 5.561450 8.390680 0.629410
rwrist -0.728433
lfingers 7.125020
rtoes -22.425501
lowerback 2.750500 -8.274930 -0.834804
rfingers 7.125020
lclavicle -0.000000 -0.000000
upperneck 13.579600 15.574900 4.087590
rfemur -46.762798 26.778400 -7.732030
thorax 1.428780 -5.368850 -4.861430
rclavicle -0.000000 -0.000000
rtibia 32.408298
lfoot -27.313601 6.767550
lhumerus 52.769501 73.040802 157.710999
rthumb -18.608700 -83.329803
root 4.154930 17.833900 1.804410 373.231995 26.934799 -17.950300
ltoes -10.080100
lfemur -33.655800 13.540500 13.290400
50
upperback 4.137350 -11.091800 -5.068650
rfoot 3.905710 -12.094400
lradius 5.807730
lthumb -9.002130 88.394501
rradius 22.150700
lwrist -72.928200
rhand -43.048698 -52.522999
rhumerus -74.891602 -30.198400 11.135100
lowerneck -6.110090 12.472600 9.166770
lhand -35.888401 58.606602
ltibia 59.874001
head 5.174230 8.264470 2.206430
rwrist 2.185560
lfingers 7.125020
rtoes -16.706400
lowerback 3.113860 -8.444200 -2.505560
rfingers 7.125020
lclavicle 0.000000 -0.000000
upperneck 13.630700 14.864200 8.619260
rfemur -50.978100 27.422100 -6.122190
thorax 2.019430 -5.495840 -3.660040
rclavicle 0.000000 -0.000000
rtibia 29.255600
lfoot -30.245899 4.670320
lhumerus 49.483898 68.719101 154.098007
rthumb -15.905200 -81.889900
root 5.123260 17.670799 0.794796 371.373993 22.966000 -25.207300
ltoes -11.084100
lfemur -38.504101 19.929300 15.737000
51
upperback 4.181530 -10.256500 -5.245860
rfoot 0.316455 -5.210040
lradius 6.260820
lthumb -6.304720 87.811302
rradius 20.795700
lwrist -58.314098
rhand -38.870201 -49.992699
rhumerus -82.646500 -26.380699 6.669770
lowerneck -5.663440 11.295800 8.614340
lhand -33.093700 57.925201
ltibia 61.493599
head 4.877120 7.494760 1.975640
rwrist 6.190400
lfingers 7.125020
rtoes -20.601801
lowerback 2.980910 -7.824570 -2.186230
rfingers 7.125020
lclavicle -0.000000 0.000000
upperneck 12.944600 13.468900 8.138400
rfemur -52.806000 24.362301 -3.184200
thorax 2.085820 -5.070500 -4.046360
rclavicle -0.000000 0.000000
rtibia 32.131199
lfoot -30.735800 6.085590
lhumerus 44.129200 59.521400 141.263000
rthumb -11.878500 -79.635803
root 4.689100 17.436300 0.991061 372.118011 22.040400 -25.488001
ltoes -11.637600
lfemur -38.810699 19.548100 18.137899
52
upperback 3.884170 -9.693220 -5.712840
rfoot -20.444700 -2.348860
lradius 7.395180
lthumb -3.259560 84.209702
rradius 19.555799
lwrist -46.287399
rhand -33.705200 -45.708698
rhumerus -84.985802 -26.536699 -7.706120
lowerneck -5.504180 9.699380 8.262360
lhand -29.940001 54.254902
ltibia 49.328400
head 4.790000 6.391690 0.637556
rwrist 10.026000
lfingers 7.125020
rtoes -14.524900
lowerback 3.197120 -7.383630 -1.414450
rfingers 7.125020
lclavicle 0.000000 -0.000000
upperneck 12.040900 11.827100 3.996780
rfemur -51.337200 18.537600 2.745910
thorax 1.477760 -4.777240 -4.879900
rclavicle 0.000000 -0.000000
rtibia 43.299999
lfoot -26.826200 12.078000
lhumerus 38.770100 51.982101 124.475998
rthumb -6.894990 -75.576401
root 2.687650 17.400499 2.443260 374.515015 26.373899 -17.583300
ltoes -11.291600
lfemur -32.376701 8.181680 19.758400
53
upperback 3.402600 -10.259100 -5.141070
rfoot -25.087000 -7.743650
lradius 8.425710
lthumb 0.441886 82.967796
rradius 20.564100
lwrist -31.806499
rhand -29.957300 -38.515499
rhumerus -67.688698 -26.880899 -39.829300
lowerneck -5.487830 8.474870 7.927730
lhand -26.107500 52.988499
ltibia 40.387100
head 4.356390 5.538790 -0.723528
rwrist 17.053499
lfingers 7.125020
rtoes -5.478320
lowerback 4.422530 -7.776640 0.121547
rfingers 7.125020
lclavicle 0.000000 0.000000
upperneck 10.064000 10.685800 -0.253606
rfemur -56.538898 15.387400 9.745220
thorax 0.097196 -5.061020 -4.855770
rclavicle 0.000000 0.000000
rtibia 54.562500
lfoot -22.155899 31.410801
lhumerus 38.092899 41.174599 110.927002
rthumb -3.276250 -68.470001
root -0.302611 17.770700 4.169860 378.700989 35.737202 -10.857600
ltoes 15.220900
lfemur -34.185299 -8.278570 21.140900
54
upperback 2.884130 -10.180100 -3.734560
rfoot -23.603300 -12.901000
lradius 13.616100
lthumb 3.790110 82.009499
rradius 22.434999
lwrist -9.332440
rhand -29.433901 -38.952999
rhumerus -59.675499 -19.456600 -43.962601
lowerneck -5.721260 7.443860 7.745140
lhand -22.640699 52.063400
ltibia 65.322403
head 4.262200 4.846150 -0.724600
rwrist 16.232201
lfingers 7.125020
rtoes 0.227373
lowerback 4.754770 -7.722520 1.414510
rfingers 7.125020
lclavicle -0.000000 -0.000000
upperneck 9.877600 9.270950 -0.044677
rfemur -62.290199 17.004700 12.874600
thorax -0.581865 -5.036450 -4.022590
rclavicle -0.000000 -0.000000
rtibia 60.083099
lfoot -24.241800 23.309601
lhumerus 32.223900 24.567200 97.670998
rthumb -2.770760 -68.914803
root -2.432200 17.699200 4.866660 380.447998 40.666901 -7.965480
ltoes 1.308110
lfemur -39.743099 -0.045705 2.362820
55
upperback 2.749980 -9.991330 -3.351920
rfoot -19.989799 -12.706600
lradius 35.514301
lthumb 3.236230 82.214996
rradius 22.384300
lwrist 11.960800
rhand -28.580700 -37.825699
rhumerus -62.756401 -20.351299 -48.061699
lowerneck -6.024130 6.204680 8.168270
lhand -23.214199 52.259800
ltibia 70.275002
head 4.261560 4.018400 -0.623224
rwrist 16.374201
lfingers 7.125020
rtoes 3.299600
lowerback 4.542330 -7.628990 3.667330
rfingers 7.125020
lclavicle 0.000000 -0.000000
upperneck 9.986650 7.446320 0.854175
rfemur -64.214302 14.746700 15.679800
thorax -0.895922 -4.945430 -4.860980
rclavicle 0.000000 -0.000000
rtibia 59.694000
lfoot -19.909500 5.080020
lhumerus 21.771099 -0.785815 81.821999
rthumb -1.946750 -67.796600
root -4.155230 17.684500 4.740200 379.687988 45.546700 -6.485620
ltoes -6.078370
lfemur -30.320999 4.515330 -12.844500
